<?xml version="1.0" encoding="utf-8"?>
<!-- Generator: Adobe Illustrator 23.0.0, SVG Export Plug-In . SVG Version: 6.00 Build 0)  -->
<svg version="1.1" id="Capa_1" xmlns="http://www.w3.org/2000/svg" xmlns:xlink="http://www.w3.org/1999/xlink" x="0px" y="0px"
	 viewBox="0 0 50 50" style="enable-background:new 0 0 50 50;" xml:space="preserve">
<style type="text/css">
	.st0{fill:#FFFFFF;}
</style>
<path class="st0" d="M25,50c13.8,0,25-11.2,25-25S38.8,0,25,0S0,11.2,0,25S11.2,50,25,50z M15.8,22.5l15.3-9.2
	c0.5-0.3,1-0.4,1.5-0.4c1,0,2,0.5,2.5,1.4c0.8,1.4,0.4,3.2-1,4L23,25l11.1,6.7c1.4,0.8,1.8,2.6,1,4c-0.8,1.4-2.6,1.8-4,1l-15.3-9.2
	C14.9,27,14.4,26,14.4,25C14.4,24,14.9,23,15.8,22.5z"/>
</svg>
